<svg width="100" height="31" viewBox="0 0 100 31" fill="none" xmlns="http://www.w3.org/2000/svg">
<path d="M62.0095 23.9609C56.2244 28.225 47.8394 30.5 40.62 30.5C30.4973 30.5 21.3842 26.756 14.4898 20.5289C13.9482 20.0392 14.4335 19.3719 15.0835 19.7532C22.5239 24.0823 31.7236 26.6866 41.2267 26.6866C47.6357 26.6866 54.6861 25.3606 61.1688 22.6089C62.1482 22.1929 62.9672 23.2503 62.0095 23.9609Z" fill="#FF9900"/>
<path d="M64.4146 21.2091C63.6779 20.2644 59.5265 20.7628 57.6632 20.9838C57.0955 21.0531 57.0088 20.5591 57.5202 20.2038C60.8265 17.8768 66.2519 18.5484 66.8846 19.3284C67.5172 20.1128 66.7199 25.5512 63.6129 28.1468C63.1362 28.5455 62.6812 28.3332 62.8935 27.8045C63.5912 26.0625 65.1556 22.1581 64.4146 21.2091Z" fill="#FF9900"/>
<path d="M57.793 3.77598V1.51396C57.793 1.17163 58.053 0.941957 58.365 0.941957H68.4921C68.8171 0.941957 69.0771 1.17596 69.0771 1.51396V3.45098C69.0728 3.77598 68.7998 4.20065 68.3144 4.87232L63.0667 12.3647C65.0167 12.3171 67.0751 12.6074 68.8431 13.6041C69.2418 13.8294 69.3501 14.1587 69.3804 14.4837V16.8974C69.3804 17.2268 69.0164 17.6124 68.6351 17.4131C65.5194 15.7794 61.381 15.6018 57.936 17.4304C57.585 17.6211 57.2167 17.2398 57.2167 16.9104V14.6181C57.2167 14.2497 57.221 13.6214 57.5894 13.0624L63.6691 4.34365H58.378C58.053 4.34365 57.793 4.11399 57.793 3.77598Z" fill="#221F1F"/>
<path d="M20.8506 17.8899H17.7696C17.4749 17.8682 17.2409 17.6472 17.2193 17.3656V1.55308C17.2193 1.23674 17.4836 0.985401 17.8129 0.985401H20.686C20.985 0.998393 21.2233 1.22807 21.245 1.51407V3.58109H21.3013C22.051 1.58341 23.4593 0.651731 25.3573 0.651731C27.2857 0.651731 28.4903 1.58341 29.357 3.58109C30.1024 1.58341 31.7967 0.651731 33.6124 0.651731C34.9037 0.651731 36.3164 1.18474 37.1787 2.38075C38.1537 3.71109 37.9544 5.64378 37.9544 7.33813L37.9501 17.3179C37.9501 17.6342 37.6857 17.8899 37.3564 17.8899H34.2797C33.9721 17.8682 33.7251 17.6212 33.7251 17.3179V8.93714C33.7251 8.2698 33.7857 6.60579 33.6384 5.97311C33.4087 4.91144 32.7197 4.61243 31.827 4.61243C31.0817 4.61243 30.3017 5.11077 29.9854 5.90811C29.669 6.70546 29.6994 8.04013 29.6994 8.93714V17.3179C29.6994 17.6342 29.435 17.8899 29.1057 17.8899H26.029C25.717 17.8682 25.4743 17.6212 25.4743 17.3179L25.47 8.93714C25.47 7.17346 25.7603 4.57777 23.572 4.57777C21.3576 4.57777 21.4443 7.10846 21.4443 8.93714V17.3179C21.4443 17.6342 21.18 17.8899 20.8506 17.8899Z" fill="#221F1F"/>
<path d="M77.7955 0.651731C82.3672 0.651731 84.8415 4.57777 84.8415 9.56981C84.8415 14.3929 82.1072 18.2192 77.7955 18.2192C73.3061 18.2192 70.8621 14.2932 70.8621 9.40081C70.8621 4.4781 73.3365 0.651731 77.7955 0.651731ZM77.8215 3.8801C75.5508 3.8801 75.4078 6.97412 75.4078 8.90248C75.4078 10.8352 75.3775 14.9605 77.7955 14.9605C80.1832 14.9605 80.2958 11.6325 80.2958 9.60448C80.2958 8.2698 80.2395 6.67512 79.8365 5.40977C79.4898 4.3091 78.8008 3.8801 77.8215 3.8801Z" fill="#221F1F"/>
<path d="M90.7695 17.8899H87.7014C87.3938 17.8682 87.1468 17.6212 87.1468 17.3179L87.1424 1.50107C87.1684 1.21074 87.4241 0.985401 87.7361 0.985401H90.5918C90.8605 0.998393 91.0815 1.1804 91.1421 1.42741V3.84543H91.1985C92.0608 1.68307 93.2698 0.651731 95.3975 0.651731C96.7798 0.651731 98.1275 1.15007 98.9942 2.51508C99.8002 3.78043 99.8002 5.90811 99.8002 7.43779V17.3916C99.7655 17.6689 99.5098 17.8899 99.2065 17.8899H96.1168C95.8352 17.8682 95.6012 17.6602 95.5708 17.3916V8.80281C95.5708 7.07379 95.7702 4.5431 93.6425 4.5431C92.8928 4.5431 92.2038 5.04577 91.8615 5.80844C91.4281 6.77479 91.3718 7.7368 91.3718 8.80281V17.3179C91.3675 17.6342 91.0988 17.8899 90.7695 17.8899Z" fill="#221F1F"/>
<path d="M49.7197 10.3368V9.66942C47.4923 9.66942 45.1393 10.1461 45.1393 12.7721C45.1393 14.1025 45.8283 15.0038 47.0113 15.0038C47.878 15.0038 48.6537 14.4708 49.1433 13.6041C49.75 12.5381 49.7197 11.5371 49.7197 10.3368ZM52.8267 17.8465C52.623 18.0285 52.3284 18.0415 52.0987 17.9202C51.076 17.0708 50.894 16.6765 50.3307 15.8661C48.6407 17.5908 47.4447 18.1065 45.252 18.1065C42.6606 18.1065 40.6413 16.5075 40.6413 13.3051C40.6413 10.8048 41.9976 9.10175 43.926 8.26974C45.5986 7.53306 47.9343 7.40307 49.7197 7.1994V6.80073C49.7197 6.06838 49.776 5.20171 49.347 4.56904C48.97 4.00137 48.2507 3.76736 47.618 3.76736C46.4436 3.76736 45.395 4.3697 45.1393 5.61771C45.0873 5.89505 44.8836 6.16805 44.6063 6.18105L41.6163 5.86038C41.3649 5.80405 41.0876 5.60038 41.1569 5.21471C41.8459 1.59201 45.1176 0.5 48.047 0.5C49.5463 0.5 51.505 0.89867 52.688 2.03401C54.1874 3.43369 54.0444 5.30138 54.0444 7.33373V12.1351C54.0444 13.5781 54.6424 14.2108 55.2057 14.9908C55.405 15.2681 55.4484 15.6018 55.197 15.8098C54.5687 16.3341 53.4507 17.3092 52.8354 17.8552L52.8267 17.8465Z" fill="#221F1F"/>
<path d="M9.3284 10.3368V9.66942C7.10105 9.66942 4.74803 10.1461 4.74803 12.7721C4.74803 14.1025 5.43703 15.0038 6.62004 15.0038C7.48672 15.0038 8.26239 14.4708 8.75206 13.6041C9.35873 12.5381 9.3284 11.5371 9.3284 10.3368ZM12.4354 17.8465C12.2317 18.0285 11.9371 18.0415 11.7074 17.9202C10.6847 17.0708 10.5027 16.6765 9.9394 15.8661C8.24939 17.5908 7.05338 18.1065 4.8607 18.1065C2.26934 18.1065 0.25 16.5075 0.25 13.3051C0.25 10.8048 1.60634 9.10175 3.53469 8.26974C5.20737 7.53306 7.54305 7.40307 9.3284 7.1994V6.80073C9.3284 6.06838 9.38473 5.20171 8.95573 4.56904C8.57872 4.00137 7.85939 3.76736 7.22671 3.76736C6.05237 3.76736 5.0037 4.3697 4.74803 5.61771C4.69603 5.89505 4.49236 6.16805 4.21503 6.18105L1.22501 5.86038C0.973671 5.80405 0.696336 5.60038 0.765669 5.21471C1.45467 1.59201 4.72636 0.5 7.65572 0.5C9.15506 0.5 11.1137 0.89867 12.2967 2.03401C13.7961 3.43369 13.6531 5.30138 13.6531 7.33373V12.1351C13.6531 13.5781 14.2511 14.2108 14.8144 14.9908C15.0138 15.2681 15.0571 15.6018 14.8058 15.8098C14.1774 16.3341 13.0594 17.3092 12.4441 17.8552L12.4354 17.8465Z" fill="#221F1F"/>
</svg>
