<svg width="85" height="28" viewBox="0 0 85 28" fill="none" xmlns="http://www.w3.org/2000/svg">
<path d="M83.6071 18.9686C83.5281 18.9719 83.4523 19.0005 83.3908 19.0501C83.3293 19.0997 83.2853 19.1678 83.2653 19.2443C82.4025 21.7058 81.2365 23.1723 80.2773 23.1723C79.726 23.1723 79.5027 22.5576 79.5027 21.5928C79.5027 19.1809 80.9471 14.0675 81.6748 11.7355C81.7552 11.4932 81.8016 11.2409 81.8126 10.9858C81.8126 10.3077 81.4432 9.97412 80.5253 9.97412C79.5358 9.97412 78.4718 10.36 77.4353 12.1793C77.077 10.5805 75.9964 9.8804 74.4831 9.8804C72.7355 9.8804 71.0485 11.0051 69.6592 12.8271C68.27 14.6492 66.6271 15.2473 65.4088 14.9524C66.2936 12.7885 66.6216 11.1732 66.6216 9.97136C66.6216 8.08866 65.6927 6.95299 64.1876 6.95299C61.9025 6.95299 60.5849 9.13339 60.5849 11.4268C60.5849 13.1992 61.3898 15.0103 63.1567 15.9061C61.6737 19.258 59.5126 22.2874 58.6912 22.2874C57.6299 22.2874 57.3129 17.0969 57.3791 13.3839C57.4177 11.2531 57.5941 11.1456 57.5941 10.5006C57.5941 10.1312 57.3543 9.87764 56.3895 9.87764C54.143 9.87764 53.4483 11.7796 53.3408 13.9655C53.3072 14.7955 53.1777 15.6187 52.9549 16.4188C52.015 19.7707 50.0799 22.3122 48.8202 22.3122C48.2358 22.3122 48.0759 21.7279 48.0759 20.9616C48.0759 18.5496 49.4266 15.5368 49.4266 12.9677C49.4266 11.0767 48.5997 9.88316 47.0367 9.88316C45.1982 9.88316 42.7642 12.0718 40.4625 16.1735C41.2206 13.0338 41.532 9.99341 39.2882 9.99341C38.802 10.0004 38.3246 10.1243 37.8962 10.3545C37.7522 10.4218 37.6318 10.5309 37.5507 10.6675C37.4695 10.8042 37.4314 10.9622 37.4414 11.1208C37.6564 14.4645 34.7483 23.0262 31.9891 23.0262C31.4874 23.0262 31.2448 22.4749 31.2448 21.6066C31.2448 19.1891 32.6837 14.0896 33.4087 11.7521C33.4947 11.4967 33.5429 11.2302 33.552 10.961C33.552 10.3214 33.1551 9.99341 32.2592 9.99341C31.2751 9.99341 30.2056 10.3683 29.1747 12.1821C28.8136 10.5833 27.7303 9.88316 26.2197 9.88316C23.7389 9.88316 20.9824 12.5046 19.753 15.9227C18.1239 20.4847 14.8409 24.8923 10.4195 24.8923C6.40884 24.8923 4.29186 21.5542 4.29186 16.281C4.29186 8.66478 9.88202 2.44333 14.0278 2.44333C16.0097 2.44333 16.9579 3.70582 16.9579 5.64364C16.9579 7.98943 15.6486 9.07825 15.6486 9.97136C15.6486 10.247 15.8746 10.5227 16.3267 10.5227C18.1294 10.5227 20.2492 8.40567 20.2492 5.51685C20.2492 2.62803 17.8979 0.5 13.7494 0.5C6.89674 0.5 0 7.39127 0 16.2314C0 23.2605 3.46766 27.5 9.46579 27.5C13.5564 27.5 17.1316 24.319 19.0584 20.6087C19.2761 23.685 20.6737 25.2948 22.8044 25.2948C24.6982 25.2948 26.2308 24.1674 27.4023 22.1827C27.8516 24.2583 29.0562 25.2727 30.6025 25.2727C32.3832 25.2727 33.8745 24.1453 35.2886 22.0476C35.2665 23.7015 35.6414 25.2424 37.0693 25.2424C37.7419 25.2424 38.5468 25.0853 38.6901 24.4982C40.1924 18.285 43.9054 13.213 45.03 13.213C45.3663 13.213 45.46 13.5383 45.46 13.9214C45.46 15.6084 44.2692 19.0706 44.2692 21.2786C44.2692 23.6657 45.2836 25.2452 47.3813 25.2452C49.705 25.2452 52.0673 22.4005 53.6413 18.2409C54.1347 22.1276 55.1987 25.2617 56.8664 25.2617C58.9117 25.2617 62.5448 20.956 64.7472 16.3968C65.9423 16.5727 67.1595 16.2869 68.1515 15.5974C67.6064 16.9593 67.3212 18.4113 67.3107 19.8782C67.3107 24.1095 69.3312 25.2948 71.0706 25.2948C72.9615 25.2948 74.4941 24.1674 75.6684 22.1827C76.0543 23.9717 77.0466 25.2672 78.8632 25.2672C81.7079 25.2672 84.1804 22.3591 84.1804 19.972C84.1915 19.3435 83.9213 18.9686 83.6071 18.9686ZM24.5438 22.9518C23.3943 22.9518 22.945 21.794 22.945 20.0684C22.945 17.0721 24.9959 12.0746 27.1625 12.0746C28.1107 12.0746 28.4663 13.1772 28.4663 14.5554C28.4663 17.5903 26.5174 22.9518 24.5438 22.9518ZM63.9065 14.0069C63.2682 13.1715 62.9381 12.1413 62.972 11.0905C62.972 9.86937 63.4186 8.83844 63.9533 8.83844C64.4881 8.83844 64.6535 9.36493 64.6535 10.0982C64.6507 11.3221 64.2124 13.111 63.9065 14.0069ZM72.8182 22.9518C71.6687 22.9518 71.2194 21.6204 71.2194 20.0684C71.2194 17.1769 73.2703 12.0746 75.4534 12.0746C76.4016 12.0746 76.7379 13.1772 76.7379 14.5554C76.7379 17.5903 74.8222 22.9518 72.8182 22.9518Z" fill="url(#paint0_radial_8_548)"/>
<defs>
<radialGradient id="paint0_radial_8_548" cx="0" cy="0" r="1" gradientUnits="userSpaceOnUse" gradientTransform="translate(7.84621 4.10733) rotate(12.4718) scale(71.9893 88.2924)">
<stop stop-color="#00C4CC"/>
<stop offset="1" stop-color="#00C4CC" stop-opacity="0"/>
</radialGradient>
</defs>
</svg>
