<svg width="89" height="30" viewBox="0 0 89 30" fill="none" xmlns="http://www.w3.org/2000/svg">
<path d="M38.3532 15.8848C38.3532 20.0489 35.0957 23.1174 31.0979 23.1174C27.1001 23.1174 23.8426 20.0489 23.8426 15.8848C23.8426 11.6913 27.1001 8.65217 31.0979 8.65217C35.0957 8.65217 38.3532 11.6913 38.3532 15.8848ZM35.1772 15.8848C35.1772 13.2826 33.2892 11.5022 31.0979 11.5022C28.9066 11.5022 27.0186 13.2826 27.0186 15.8848C27.0186 18.4609 28.9066 20.2674 31.0979 20.2674C33.2892 20.2674 35.1772 18.4576 35.1772 15.8848Z" fill="#EA4335"/>
<path d="M54.007 15.8848C54.007 20.0489 50.7494 23.1174 46.7516 23.1174C42.7538 23.1174 39.4963 20.0489 39.4963 15.8848C39.4963 11.6946 42.7538 8.65217 46.7516 8.65217C50.7494 8.65217 54.007 11.6913 54.007 15.8848ZM50.8309 15.8848C50.8309 13.2826 48.9429 11.5022 46.7516 11.5022C44.5603 11.5022 42.6723 13.2826 42.6723 15.8848C42.6723 18.4609 44.5603 20.2674 46.7516 20.2674C48.9429 20.2674 50.8309 18.4576 50.8309 15.8848Z" fill="#FBBC05"/>
<path d="M69.0056 9.08913V22.0739C69.0056 27.4152 65.8557 29.5967 62.1318 29.5967C58.6264 29.5967 56.5167 27.2522 55.721 25.3348L58.4862 24.1837C58.9786 25.3609 60.1851 26.75 62.1286 26.75C64.5122 26.75 65.9894 25.2793 65.9894 22.5109V21.4707H65.8785C65.1676 22.3478 63.7981 23.1141 62.0699 23.1141C58.4536 23.1141 55.1406 19.9641 55.1406 15.9109C55.1406 11.8283 58.4536 8.65217 62.0699 8.65217C63.7948 8.65217 65.1644 9.41848 65.8785 10.2696H65.9894V9.09239H69.0056V9.08913ZM66.2144 15.9109C66.2144 13.3641 64.5155 11.5022 62.3536 11.5022C60.1623 11.5022 58.3264 13.3641 58.3264 15.9109C58.3264 18.4315 60.1623 20.2674 62.3536 20.2674C64.5155 20.2674 66.2144 18.4315 66.2144 15.9109Z" fill="#4285F4"/>
<path d="M73.9788 1.47854V22.6742H70.881V1.47854H73.9788Z" fill="#34A853"/>
<path d="M86.0509 18.265L88.5161 19.9084C87.7205 21.0856 85.8031 23.1139 82.4901 23.1139C78.3814 23.1139 75.313 19.9378 75.313 15.8813C75.313 11.5802 78.4075 8.64866 82.1347 8.64866C85.8879 8.64866 87.7237 11.6356 88.3237 13.2497L88.6531 14.0715L78.9847 18.0758C79.7249 19.5269 80.876 20.2671 82.4901 20.2671C84.1075 20.2671 85.2292 19.4715 86.0509 18.265ZM78.463 15.6628L84.9259 12.9791C84.5705 12.0758 83.5009 11.4465 82.2423 11.4465C80.6282 11.4465 78.3814 12.8715 78.463 15.6628Z" fill="#EA4335"/>
<path d="M12.1165 14.003V10.9345H22.4566C22.5577 11.4693 22.6099 12.1019 22.6099 12.7866C22.6099 15.0888 21.9805 17.9356 19.9523 19.9638C17.9795 22.0182 15.4589 23.1138 12.1198 23.1138C5.93072 23.1138 0.72644 18.0725 0.72644 11.8834C0.72644 5.69426 5.93072 0.652954 12.1198 0.652954C15.5436 0.652954 17.9827 1.99643 19.8153 3.74752L17.6501 5.91274C16.336 4.68013 14.5556 3.72143 12.1165 3.72143C7.59701 3.72143 4.06227 7.36382 4.06227 11.8834C4.06227 16.403 7.59701 20.0453 12.1165 20.0453C15.048 20.0453 16.7175 18.8682 17.7871 17.7986C18.6545 16.9312 19.2251 15.6921 19.4501 13.9997L12.1165 14.003Z" fill="#4285F4"/>
</svg>
