<svg width="110" height="26" viewBox="0 0 110 26" fill="none" xmlns="http://www.w3.org/2000/svg">
<path fill-rule="evenodd" clip-rule="evenodd" d="M37.2643 17.0295L37.2432 16.7471H36.9599H35.2018H34.8838L34.8968 17.0648C35.0419 20.6047 37.4284 22.9494 41.6728 22.9494C45.7208 22.9494 48.4734 20.8462 48.4734 17.6628C48.4734 15.9414 47.8762 14.7232 46.7382 13.8913C45.8628 13.2513 44.8161 12.8906 43.0805 12.5143C42.9645 12.4892 42.8436 12.4634 42.6988 12.4329C42.6128 12.4148 42.3042 12.3502 42.3205 12.3537C39.1685 11.6929 38.1687 11.1188 38.1687 9.40927C38.1687 7.64145 39.6144 6.51566 42.039 6.51566C44.3981 6.51566 45.889 7.95643 45.9584 10.2244L45.9675 10.5203H46.2635H47.9972H48.3096L48.3024 10.208C48.2208 6.67279 45.8488 4.29357 42.0146 4.29357C38.2568 4.29357 35.7756 6.55472 35.7756 9.48252C35.7756 11.199 36.3722 12.3944 37.512 13.1931C38.3803 13.8015 39.3862 14.124 41.1606 14.4823C41.2437 14.4991 41.3304 14.5164 41.4336 14.5369C41.4975 14.5495 41.5697 14.5638 41.7051 14.5906C43.384 14.9228 44.1248 15.1278 44.8006 15.5208C45.6396 16.0086 46.0559 16.7054 46.0559 17.7848C46.0559 19.6589 44.4802 20.7273 41.7216 20.7273C39.0807 20.7273 37.4418 19.4029 37.2643 17.0295ZM53.4182 3.98834V3.68311H53.113H51.3792H51.074V3.98834V22.3023V22.6075H51.3792H53.113H53.4182V22.3023V19.0369L55.8858 16.6337L60.2924 22.4859L60.384 22.6075H60.5363H62.6851H63.3001L62.9282 22.1177L57.5466 15.0292L62.5098 10.0896L63.0338 9.56799H62.2944H59.9747H59.8476L59.7581 9.65816L53.4182 16.0431V3.98834ZM75.3219 16.8936H75.6086L75.6265 16.6074C75.6296 16.557 75.6343 16.4738 75.639 16.3736C75.6427 16.2942 75.6457 16.2169 75.6479 16.1438C75.6502 16.0646 75.6515 15.9925 75.6515 15.929C75.6515 12.0978 73.1139 9.27496 69.3637 9.27496C65.6205 9.27496 62.9537 12.2798 62.9537 16.0755C62.9537 19.9814 65.4996 22.9005 69.3881 22.9005C72.3283 22.9005 74.5997 21.156 75.4181 18.5099L75.5404 18.1145H75.1265H73.3195H73.1039L73.0319 18.3177C72.5179 19.766 71.1265 20.7273 69.4125 20.7273C67.1717 20.7273 65.6096 19.1884 65.3282 16.8936H75.3219ZM65.3992 14.8668C65.7949 12.8121 67.3061 11.4482 69.3637 11.4482C71.4844 11.4482 72.9479 12.7673 73.2681 14.8668H65.3992ZM83.3434 11.6436H83.6487V11.3383V9.87322V9.56799H83.3434H80.7917V6.33252V6.02729H80.4864H78.7527H78.4475V6.33252V9.56799H76.3841H76.0788V9.87322V11.3383V11.6436H76.3841H78.4475V18.9569C78.4475 21.3561 79.6918 22.6564 81.976 22.6564C82.3747 22.6564 82.7183 22.6325 83.0069 22.5924C83.1853 22.5676 83.3084 22.542 83.3763 22.5231L83.5998 22.461V22.229V20.6662V20.2875L83.2298 20.368C83.215 20.3712 83.185 20.3773 83.1422 20.3853C83.0697 20.3989 82.9889 20.4126 82.9022 20.4253C82.6803 20.4579 82.4601 20.4789 82.2575 20.4825C82.2366 20.4829 82.216 20.4831 82.1958 20.4831C81.1952 20.4831 80.7917 20.0131 80.7917 18.8348V11.6436H83.3434ZM90.6324 22.9005C93.8772 22.9005 96.1682 20.8473 96.7435 17.9418L96.8157 17.5773H96.4441H94.686H94.4513L94.391 17.8041C93.8981 19.6583 92.5603 20.7273 90.6324 20.7273C88.2265 20.7273 86.5667 18.8294 86.5667 16.1C86.5667 13.3494 88.2237 11.4482 90.6324 11.4482C92.5603 11.4482 93.8981 12.5172 94.391 14.3714L94.4513 14.5982H94.686H96.4441H96.8157L96.7435 14.2337C96.1682 11.3282 93.8772 9.27496 90.6324 9.27496C86.8632 9.27496 84.1981 12.3011 84.1981 16.1C84.1981 19.878 86.8669 22.9005 90.6324 22.9005ZM101.133 3.98834V3.68311H100.827H99.0936H98.7883V3.98834V22.3023V22.6075H99.0936H100.827H101.133V22.3023V14.9523C101.133 12.7129 102.496 11.3994 104.563 11.3994C106.538 11.3994 107.53 12.5427 107.53 14.7081V22.3023V22.6075H107.835H109.569H109.874V22.3023V14.3662C109.874 11.3074 107.98 9.27496 104.856 9.27496C103.249 9.27496 101.957 9.86379 101.133 10.7089V3.98834Z" fill="#000008"/>
<path fill-rule="evenodd" clip-rule="evenodd" d="M6.07656 1.3231L13.9255 0.5L21.7744 1.3231L27.8509 9.41462L13.9255 25.5L0 9.41462L6.07656 1.3231Z" fill="#FDB300"/>
<path fill-rule="evenodd" clip-rule="evenodd" d="M5.64063 9.41453L13.9255 25.5L0 9.41462L5.64063 9.41453Z" fill="#EA6C00"/>
<path fill-rule="evenodd" clip-rule="evenodd" d="M22.2101 9.41453L13.9255 25.5L27.8509 9.41462L22.2101 9.41453Z" fill="#EA6C00"/>
<path fill-rule="evenodd" clip-rule="evenodd" d="M5.64158 9.41453H22.2115L13.9265 25.5L5.64158 9.41453Z" fill="#FDAD00"/>
<path fill-rule="evenodd" clip-rule="evenodd" d="M13.9263 0.5L6.07745 1.32296L5.64158 9.41453L13.9263 0.5Z" fill="#FDD231"/>
<path fill-rule="evenodd" clip-rule="evenodd" d="M13.9263 0.5L21.7752 1.32296L22.2115 9.41453L13.9263 0.5Z" fill="#FDD231"/>
<path fill-rule="evenodd" clip-rule="evenodd" d="M27.8504 9.41455L21.7744 1.3231L22.2101 9.41453L27.8504 9.41455Z" fill="#FDAD00"/>
<path fill-rule="evenodd" clip-rule="evenodd" d="M0 9.41462L6.07656 1.3231L5.64063 9.41453L0 9.41462Z" fill="#FDAD00"/>
<path fill-rule="evenodd" clip-rule="evenodd" d="M13.9263 0.5L5.64158 9.41453H22.2115L13.9263 0.5Z" fill="#FEEEB7"/>
</svg>
